<svg width="48" height="47" viewBox="0 0 48 47" fill="none" xmlns="http://www.w3.org/2000/svg">
<path d="M39.9406 12.7822C43.4519 12.7822 46.2984 9.92084 46.2984 6.39112C46.2984 2.8614 43.4519 0 39.9406 0C36.4293 0 33.5828 2.8614 33.5828 6.39112C33.5828 9.92084 36.4293 12.7822 39.9406 12.7822Z" fill="#8D54EB"/>
<path fill-rule="evenodd" clip-rule="evenodd" d="M35.2911 18.3417C35.9054 17.7273 35.9054 16.7313 35.2911 16.117L32.8605 13.6865C30.9039 11.7298 27.7315 11.7298 25.7749 13.6865L3.55066 35.9107C1.594 37.8673 1.594 41.0397 3.55066 42.9964C5.50732 44.953 8.67969 44.953 10.6364 42.9964L20.7893 32.8435C24.6026 29.0301 30.7853 29.0301 34.5987 32.8434L38.2609 36.5057C40.0517 38.2964 42.955 38.2964 44.7457 36.5057C46.5364 34.715 46.5364 31.8117 44.7457 30.0209L35.2911 20.5663C34.6768 19.952 34.6768 18.956 35.2911 18.3417Z" fill="#8D54EB"/>
</svg>
