<svg width="500" height="500" viewBox="0 0 500 500" fill="none" xmlns="http://www.w3.org/2000/svg">
<g clip-path="url(#clip0_3_2)">
<path fill-rule="evenodd" clip-rule="evenodd" d="M496.443 185.101C484.115 231.11 436.813 258.411 390.791 246.08C386.455 244.918 382.285 243.446 378.298 241.694C372.924 239.331 366.707 239.212 361.622 242.147L326.838 262.224C318.984 266.756 316.293 276.799 320.828 284.651L347.096 330.134C351.631 337.986 348.94 348.029 341.086 352.562L294.814 379.268C286.964 383.8 276.926 381.11 272.393 373.261L246.116 327.763C241.583 319.913 231.545 317.224 223.695 321.754L51.4623 421.161C43.6116 425.693 33.5742 423.003 29.0409 415.154L2.32134 368.888C-2.21373 361.036 0.477069 350.994 8.33081 346.461L318.633 167.365C323.703 164.438 326.708 159.018 327.365 153.201C327.843 148.957 328.644 144.695 329.782 140.444C342.111 94.4344 389.413 67.133 435.435 79.4646C481.458 91.7962 508.772 139.091 496.443 185.101Z" fill="#53CC0A"/>
</g>
<defs>
<clipPath id="clip0_3_2">
<rect width="500" height="347.469" fill="white" transform="translate(0 76)"/>
</clipPath>
</defs>
</svg>
