<svg width="500" height="500" viewBox="0 0 500 500" fill="none" xmlns="http://www.w3.org/2000/svg">
<path fill-rule="evenodd" clip-rule="evenodd" d="M309.329 0C401.835 0 476.826 74.9909 476.826 167.497V409.091C476.826 434.195 456.475 454.545 431.371 454.545H358.364C308.156 454.545 267.455 413.844 267.455 363.636V41.8742C267.455 18.7477 286.202 0 309.329 0ZM189.497 45.4545C96.9909 45.4545 22 120.445 22 212.952V454.545C22 479.649 42.3507 500 67.4545 500H140.462C190.67 500 231.371 459.298 231.371 409.091V87.3288C231.371 64.2023 212.623 45.4545 189.497 45.4545Z" fill="#BCE93B"/>
</svg>
